<svg width="60" height="60" viewBox="0 0 60 60" fill="none" xmlns="http://www.w3.org/2000/svg">
<path fill-rule="evenodd" clip-rule="evenodd" d="M32.9405 0.144458C39.8477 0.82476 46.3054 3.87901 51.2132 8.78679L40.6066 19.3934C38.1527 16.9395 34.9239 15.4124 31.4703 15.0722C28.0166 14.7321 24.5519 15.5999 21.6664 17.528C18.781 19.456 16.6533 22.3248 15.6459 25.6457C14.6385 28.9666 14.8138 32.5341 16.1418 35.7403C17.4698 38.9464 19.8685 41.5929 22.9291 43.2288C25.9896 44.8647 29.5227 45.3888 32.9264 44.7118C36.33 44.0348 39.3936 42.1985 41.5952 39.5159C43.7967 36.8333 45 33.4703 45 30H60C60 36.9407 57.5934 43.6666 53.1903 49.0318C48.7872 54.397 42.66 58.0695 35.8527 59.4236C29.0454 60.7776 21.9792 59.7294 15.8581 56.4576C9.73699 53.1858 4.93969 47.8928 2.28361 41.4805C-0.372461 35.0682 -0.722977 27.9333 1.29179 21.2915C3.30656 14.6497 7.56194 8.91194 13.3329 5.05591C19.1038 1.19989 26.0333 -0.535845 32.9405 0.144458ZM38.9711 30H30L36.3435 23.6565C34.8759 22.1889 32.9448 21.2756 30.8793 21.0721C28.8138 20.8687 26.7417 21.3877 25.0159 22.5408C23.2902 23.6939 22.0177 25.4097 21.4152 27.3958C20.8127 29.382 20.9176 31.5156 21.7118 33.4331C22.5061 35.3506 23.9406 36.9334 25.7711 37.9118C27.6015 38.8902 29.7145 39.2036 31.7502 38.7987C33.7858 38.3938 35.618 37.2956 36.9347 35.6912C38.2514 34.0868 38.9711 32.0755 38.9711 30Z" fill="#4B45E7"/>
</svg>
